<svg width="3720" height="3438" viewBox="0 0 3720 3438" fill="none" xmlns="http://www.w3.org/2000/svg">
<rect x="2520" width="1200" height="1200" rx="60" fill="white"/>
<circle cx="3120" cy="600" r="300" fill="#E83F3F"/>
<path d="M0 60C0 26.8629 26.8629 0 60 0H1140C1173.14 0 1200 26.8629 1200 60V1140C1200 1173.14 1173.14 1200 1140 1200H60C26.8629 1200 0 1173.14 0 1140V60Z" fill="white"/>
<path d="M394.5 889.6C377.931 889.6 364.5 876.169 364.5 859.6V340C364.5 323.431 377.931 310 394.5 310H663.3C710.7 310 749.7 319.6 780.3 338.8C811.5 357.4 834.6 382.9 849.6 415.3C864.6 447.7 872.1 483.7 872.1 523.3C872.1 564.1 863.4 600.4 846 632.2C828.6 664 804 688.9 772.2 706.9C740.4 724.9 702.9 733.9 659.7 733.9H563.7C547.131 733.9 533.7 747.332 533.7 763.9V859.6C533.7 876.169 520.269 889.6 503.7 889.6H394.5ZM533.7 574.3C533.7 590.869 547.131 604.3 563.7 604.3H621C647.4 604.3 666.9 596.8 679.5 581.8C692.7 566.8 699.3 547.3 699.3 523.3C699.3 497.5 693.3 477.1 681.3 462.1C669.3 447.1 650.7 439.6 625.5 439.6H563.7C547.131 439.6 533.7 453.032 533.7 469.6V574.3Z" fill="#303030"/>
<path d="M1260 60C1260 26.8629 1286.86 0 1320 0H2400C2433.14 0 2460 26.8629 2460 60V1140C2460 1173.14 2433.14 1200 2400 1200H1320C1286.86 1200 1260 1173.14 1260 1140V60Z" fill="white"/>
<path d="M1654.5 889.6C1637.93 889.6 1624.5 876.169 1624.5 859.6V340C1624.5 323.431 1637.93 310 1654.5 310H1926C1973.4 310 2012.1 318.7 2042.1 336.1C2072.7 353.5 2095.5 377.8 2110.5 409C2125.5 439.6 2133 475.3 2133 516.1C2133 555.1 2123.1 589.6 2103.3 619.6C2088.86 641.708 2070.69 659.914 2048.79 674.218C2038.54 680.916 2036.58 696.468 2043 706.9C2047.8 714.1 2053.2 724.3 2059.2 737.5L2107.39 847.567C2116.07 867.389 2101.55 889.6 2079.91 889.6H1969C1957.09 889.6 1946.31 882.557 1941.53 871.652L1888.2 750.1C1883.4 739.3 1877.4 731.8 1870.2 727.6C1863.6 722.8 1854 720.4 1841.4 720.4H1823.7C1807.13 720.4 1793.7 733.832 1793.7 750.4V859.6C1793.7 876.169 1780.27 889.6 1763.7 889.6H1654.5ZM1793.7 560.8C1793.7 577.369 1807.13 590.8 1823.7 590.8H1882.8C1907.4 590.8 1926.3 584.5 1939.5 571.9C1953.3 558.7 1960.2 540.1 1960.2 516.1C1960.2 465.1 1936.2 439.6 1888.2 439.6H1823.7C1807.13 439.6 1793.7 453.032 1793.7 469.6V560.8Z" fill="#303030"/>
<path d="M0 1320C0 1286.86 26.8629 1260 60 1260H1140C1173.14 1260 1200 1286.86 1200 1320V2400C1200 2433.14 1173.14 2460 1140 2460H60C26.8629 2460 0 2433.14 0 2400V1320Z" fill="white"/>
<path d="M360 2149.6C343.431 2149.6 330 2136.17 330 2119.6V1600C330 1583.43 343.431 1570 360 1570H589.2C648.6 1570 699.3 1579.9 741.3 1599.7C783.3 1618.9 815.4 1650.1 837.6 1693.3C859.8 1735.9 870.9 1792.6 870.9 1863.4C870.9 1963 846.6 2035.6 798 2081.2C749.4 2126.8 679.8 2149.6 589.2 2149.6H360ZM499.2 1990C499.2 2006.57 512.631 2020 529.2 2020H567.6C595.8 2020 619.5 2016.1 638.7 2008.3C657.9 1999.9 672.6 1984.6 682.8 1962.4C693 1939.6 698.1 1906.6 698.1 1863.4C698.1 1820.2 693.3 1786.9 683.7 1763.5C674.7 1739.5 660.6 1723 641.4 1714C622.2 1704.4 597.6 1699.6 567.6 1699.6H529.2C512.631 1699.6 499.2 1713.03 499.2 1729.6V1990Z" fill="#303030"/>
<path d="M2520 1320C2520 1286.86 2546.86 1260 2580 1260H3660C3693.14 1260 3720 1286.86 3720 1320V2400C3720 2433.14 3693.14 2460 3660 2460H2580C2546.86 2460 2520 2433.14 2520 2400V1320Z" fill="white"/>
<path d="M2883.5 2149.6C2866.93 2149.6 2853.5 2136.17 2853.5 2119.6V1600C2853.5 1583.43 2866.93 1570 2883.5 1570H2982.04C2991.74 1570 3000.84 1574.69 3006.47 1582.59L3161.77 1800.52C3178.72 1824.3 3216.2 1812.31 3216.2 1783.11V1600C3216.2 1583.43 3229.63 1570 3246.2 1570H3355.4C3371.97 1570 3385.4 1583.43 3385.4 1600V2119.6C3385.4 2136.17 3371.97 2149.6 3355.4 2149.6H3255.97C3246.26 2149.6 3237.16 2144.9 3231.53 2137L3077.14 1920.09C3060.2 1896.29 3022.7 1908.27 3022.7 1937.48V2119.6C3022.7 2136.17 3009.27 2149.6 2992.7 2149.6H2883.5Z" fill="#303030"/>
<path d="M1260 1320C1260 1286.86 1286.86 1260 1320 1260H2400C2433.14 1260 2460 1286.86 2460 1320V2400C2460 2433.14 2433.14 2460 2400 2460H1320C1286.86 2460 1260 2433.14 1260 2400V1320Z" fill="white"/>
<path d="M1634.55 2149.6C1610 2149.6 1595.84 2121.73 1610.32 2101.91L1776.87 1873.77C1784.52 1863.29 1784.57 1849.08 1776.99 1838.55L1617.83 1617.53C1603.54 1597.69 1617.72 1570 1642.17 1570H1769.56C1779.36 1570 1788.54 1574.79 1794.16 1582.83L1866.91 1687.02C1878.82 1704.08 1904.05 1704.13 1916.03 1687.12L1989.54 1582.73C1995.16 1574.75 2004.31 1570 2014.07 1570H2141.53C2165.98 1570 2180.16 1597.69 2165.87 1617.53L2006.71 1838.55C1999.13 1849.08 1999.18 1863.29 2006.83 1873.77L2173.38 2101.91C2187.86 2121.73 2173.7 2149.6 2149.15 2149.6H2019.34C2009.65 2149.6 2000.56 2144.92 1994.93 2137.04L1915.91 2026.41C1903.92 2009.62 1878.95 2009.67 1867.02 2026.51L1788.77 2136.94C1783.14 2144.88 1774.02 2149.6 1764.29 2149.6H1634.55Z" fill="#303030"/>
<path d="M30 3424.7C13.4314 3424.7 0 3411.27 0 3394.7V2598.3C0 2581.73 13.4315 2568.3 30 2568.3H613.506C630.075 2568.3 643.506 2581.73 643.506 2598.3V2724.47C643.506 2741.04 630.075 2754.47 613.506 2754.47H279.957C263.388 2754.47 249.957 2767.9 249.957 2784.47V2872.08C249.957 2888.65 263.388 2902.08 279.957 2902.08H562.983C579.552 2902.08 592.983 2915.51 592.983 2932.08V3060.92C592.983 3077.49 579.552 3090.92 562.983 3090.92H279.957C263.388 3090.92 249.957 3104.35 249.957 3120.92V3394.7C249.957 3411.27 236.525 3424.7 219.957 3424.7H30Z" fill="white"/>
<path d="M740.223 3424.7C723.654 3424.7 710.223 3411.27 710.223 3394.7V2598.3C710.223 2581.73 723.654 2568.3 740.223 2568.3H930.18C946.748 2568.3 960.18 2581.73 960.18 2598.3V3394.7C960.18 3411.27 946.748 3424.7 930.18 3424.7H740.223Z" fill="white"/>
<path d="M1110.27 3424.7C1093.7 3424.7 1080.27 3411.27 1080.27 3394.7V2598.3C1080.27 2581.73 1093.7 2568.3 1110.27 2568.3H1300.22C1316.79 2568.3 1330.22 2581.73 1330.22 2598.3V3203.21C1330.22 3219.78 1343.65 3233.21 1360.22 3233.21H1685.79C1702.36 3233.21 1715.79 3246.64 1715.79 3263.21V3394.7C1715.79 3411.27 1702.36 3424.7 1685.79 3424.7H1110.27Z" fill="white"/>
<path d="M1812.7 3424.7C1796.13 3424.7 1782.7 3411.27 1782.7 3394.7V2598.3C1782.7 2581.73 1796.13 2568.3 1812.7 2568.3H2007.29C2018.74 2568.3 2029.2 2574.82 2034.23 2585.12L2211.7 2947.89C2222.69 2970.34 2254.7 2970.3 2265.63 2947.82L2441.93 2585.18C2446.95 2574.85 2457.43 2568.3 2468.91 2568.3H2662.12C2678.69 2568.3 2692.12 2581.73 2692.12 2598.3V3394.7C2692.12 3411.27 2678.69 3424.7 2662.12 3424.7H2472.16C2455.59 3424.7 2442.16 3411.27 2442.16 3394.7V3126.92C2442.16 3095.08 2399.09 3085.17 2385.17 3113.81L2313.42 3261.53C2308.4 3271.86 2297.92 3278.42 2286.44 3278.42H2189.63C2178.18 3278.42 2167.74 3271.91 2162.7 3261.63L2089.59 3112.58C2075.6 3084.05 2032.66 3094.01 2032.66 3125.79V3394.7C2032.66 3411.27 2019.22 3424.7 2002.66 3424.7H1812.7Z" fill="white"/>
<path d="M3092.86 3438C3035.25 3438 2980.74 3433.57 2929.33 3424.7C2885.95 3416.47 2847.93 3405.72 2815.28 3392.44C2804.45 3388.04 2797.7 3377.33 2797.7 3365.65V3225.79C2797.7 3203.85 2820.58 3189.19 2841.13 3196.9C2869.1 3207.4 2898.94 3216.4 2930.66 3223.9C2979.41 3235.42 3025.06 3241.19 3067.6 3241.19C3111.92 3241.19 3145.16 3237.64 3167.32 3230.55C3190.36 3222.57 3201.89 3205.28 3201.89 3178.69C3201.89 3160.07 3195.24 3145.44 3181.94 3134.8C3169.54 3124.16 3149.59 3114.41 3122.11 3105.55C3095.52 3096.68 3060.51 3085.6 3017.08 3072.3C2959.47 3053.68 2913.82 3033.29 2880.13 3011.13C2846.45 2988.96 2822.08 2961.92 2807.01 2930.01C2792.83 2898.09 2785.74 2859.09 2785.74 2812.98C2785.74 2728.76 2815.43 2664.93 2874.82 2621.49C2935.09 2577.16 3024.17 2555 3142.06 2555C3189.04 2555 3237.34 2558.99 3286.98 2566.97C3326.74 2573.25 3360.47 2580.08 3388.15 2587.46C3400.81 2590.83 3409.3 2602.48 3409.3 2615.58V2756.53C3409.3 2777.8 3387.75 2792.33 3367.58 2785.58C3340.82 2776.62 3314.84 2769.8 3289.64 2765.11C3251.52 2758.02 3215.63 2754.47 3181.94 2754.47C3142.94 2754.47 3109.71 2757.58 3082.23 2763.78C3054.75 2769.99 3041.01 2785.95 3041.01 2811.66C3041.01 2833.82 3052.53 2850.22 3075.58 2860.86C3099.51 2870.61 3141.61 2883.47 3201.89 2899.42C3271.91 2918.04 3325.09 2940.65 3361.43 2967.24C3398.66 2993.84 3423.92 3024.87 3437.22 3060.33C3450.52 3094.91 3457.16 3134.36 3457.16 3178.69C3457.16 3256.7 3427.03 3319.65 3366.75 3367.52C3306.48 3414.51 3215.18 3438 3092.86 3438Z" fill="white"/>
<path d="M3553.23 3424.7C3536.66 3424.7 3523.23 3411.27 3523.23 3394.7V3275.18C3523.23 3258.61 3536.66 3245.18 3553.23 3245.18H3690C3706.57 3245.18 3720 3258.61 3720 3275.18V3394.7C3720 3411.27 3706.57 3424.7 3690 3424.7H3553.23Z" fill="white"/>
</svg>
